<svg xmlns="http://www.w3.org/2000/svg" width="59.399" height="54" viewBox="0 0 59.399 54">
  <g id="Glyph" transform="translate(-1 -2)">
    <path id="Path_2266" data-name="Path 2266" d="M44.2,10.1a8.1,8.1,0,1,1,8.1,8.1A8.1,8.1,0,0,1,44.2,10.1ZM3.7,12.8H36.1a2.7,2.7,0,0,0,0-5.4H3.7a2.7,2.7,0,0,0,0,5.4Zm16.2,8.1a8.1,8.1,0,0,0-7.614,5.4H3.7a2.7,2.7,0,1,0,0,5.4h8.586A8.1,8.1,0,1,0,19.9,20.9Zm37.8,5.4H36.1a2.7,2.7,0,1,0,0,5.4H57.7a2.7,2.7,0,0,0,0-5.4ZM25.3,45.2H3.7a2.7,2.7,0,0,0,0,5.4H25.3a2.7,2.7,0,1,0,0-5.4Zm32.4,0H49.113a8.1,8.1,0,1,0,0,5.4H57.7a2.7,2.7,0,0,0,0-5.4Z" fill="#202020"/>
  </g>
</svg>
