<svg xmlns="http://www.w3.org/2000/svg" width="51.241" height="45.588" viewBox="0 0 51.241 45.588">
  <path id="heart" d="M47.176,4.461A13.779,13.779,0,0,0,36.927,0a12.891,12.891,0,0,0-8.051,2.779,16.472,16.472,0,0,0-3.255,3.4,16.463,16.463,0,0,0-3.255-3.4A12.889,12.889,0,0,0,14.315,0,13.779,13.779,0,0,0,4.065,4.461,16.017,16.017,0,0,0,0,15.4c0,4.334,1.615,8.3,5.082,12.484,3.1,3.742,7.56,7.542,12.722,11.941,1.763,1.5,3.761,3.205,5.835,5.019a3.008,3.008,0,0,0,3.961,0c2.075-1.814,4.074-3.518,5.837-5.021,5.162-4.4,9.619-8.2,12.721-11.94,3.467-4.183,5.082-8.15,5.082-12.484A16.015,16.015,0,0,0,47.176,4.461Zm0,0" transform="translate(0)" fill="#fc5555"/>
</svg>
