<svg xmlns="http://www.w3.org/2000/svg" width="68.862" height="65.19" viewBox="0 0 68.862 65.19">
  <g id="Iconly_Bold_Heart" data-name="Iconly/Bold/Heart" transform="translate(-2 -2.5)">
    <g id="Heart" transform="translate(2 2.5)">
      <path id="Path_1879" data-name="Path 1879" d="M47.24,0a21.561,21.561,0,0,0-6.3,1.133h-.2a1.2,1.2,0,0,0-.31.2,12.163,12.163,0,0,0-2.169.9h0l-1.308.583c-.516.274-1.136.786-1.481.995a10.467,10.467,0,0,0-1.033.648A21.618,21.618,0,0,0,21.176,0a20.18,20.18,0,0,0-6.4,1C2.063,5.113-2.516,19.009,1.309,31.154a43.647,43.647,0,0,0,10.36,16.5,132.341,132.341,0,0,0,21.8,17.018h0l.861.518.9-.552A131.1,131.1,0,0,0,57.152,47.62,44.35,44.35,0,0,0,67.52,31.154C71.41,19.009,66.831,5.113,53.985.924A15.607,15.607,0,0,0,50.924.207h-.413A20.034,20.034,0,0,0,47.618,0H47.24ZM16.562,10.843a2.759,2.759,0,0,1,3.478,1.715,2.8,2.8,0,0,1-1.722,3.53,5.745,5.745,0,0,0-3.684,5.387h0v.106a2.942,2.942,0,0,1-.654,2.127,2.889,2.889,0,0,1-1.963.995A2.827,2.827,0,0,1,9.3,22.093h0v-.408A11.323,11.323,0,0,1,16.562,10.843Z" transform="translate(0 0)" fill="#a2a2a2"/>
    </g>
  </g>
</svg>
