<svg xmlns="http://www.w3.org/2000/svg" width="65" height="68.407" viewBox="0 0 65 68.407">
  <g id="Iconly_Bold_Setting" data-name="Iconly/Bold/Setting" transform="translate(-2.5 -2)">
    <g id="Setting" transform="translate(2.5 2)">
      <path id="Path_1881" data-name="Path 1881" d="M34.936,0a6.9,6.9,0,0,1,4.994,1.95,6.623,6.623,0,0,1,2.052,4.857,6.888,6.888,0,0,0,6.981,6.81,7.275,7.275,0,0,0,3.455-.927,7,7,0,0,1,9.334,2.531h0l2.329,4A6.887,6.887,0,0,1,65,22.61a6.742,6.742,0,0,1-3.485,5.883,6.845,6.845,0,0,0-2.565,2.5,6.7,6.7,0,0,0,2.565,9.132,6.765,6.765,0,0,1,2.565,9.231h0l-2.329,3.868a6.928,6.928,0,0,1-5.986,3.42,6.805,6.805,0,0,1-3.485-.927,7.5,7.5,0,0,0-3.492-.923,6.962,6.962,0,0,0-4.922,2.018,6.617,6.617,0,0,0-2.056,4.823,6.875,6.875,0,0,1-6.977,6.772H30.151a6.888,6.888,0,0,1-4.86-2.018A6.726,6.726,0,0,1,23.31,61.6a6.857,6.857,0,0,0-6.943-6.806,6.776,6.776,0,0,0-3.561,1,7.351,7.351,0,0,1-5.3.681A7.137,7.137,0,0,1,3.264,53.29h0L1.078,49.425a6.666,6.666,0,0,1-.855-5.336,6.926,6.926,0,0,1,3.383-4.275,6.638,6.638,0,0,0,2.565-2.5,6.769,6.769,0,0,0-2.565-9.132,6.658,6.658,0,0,1-2.528-9.132h0l2.186-3.831a6.972,6.972,0,0,1,4.275-3.249,7.066,7.066,0,0,1,5.336.718,7.451,7.451,0,0,0,3.492.889A7.068,7.068,0,0,0,21.289,11.6,6.708,6.708,0,0,0,23.31,6.808,6.881,6.881,0,0,1,30.284,0h4.652Zm1.372,25.587A9.757,9.757,0,0,0,25.8,27.6a9.22,9.22,0,0,0-2.086,10.23,9.557,9.557,0,0,0,8.859,5.811h.038a9.4,9.4,0,0,0,6.769-2.736,9.215,9.215,0,0,0,2.839-6.635A9.32,9.32,0,0,0,36.307,25.589Z" transform="translate(0 0)" fill="#a2a2a2"/>
    </g>
  </g>
</svg>
