<svg xmlns="http://www.w3.org/2000/svg" width="65.861" height="69.327" viewBox="0 0 65.861 69.327">
  <g id="Iconly_Bold_Home" data-name="Iconly/Bold/Home" transform="translate(-2.5 12.005)">
    <g id="Home" transform="translate(2.5 2)">
      <path id="Path_1877" data-name="Path 1877" d="M23,65.075v-10.6a4.917,4.917,0,0,1,4.935-4.9H37.9a4.953,4.953,0,0,1,3.49,1.435,4.88,4.88,0,0,1,1.445,3.464v10.6a4.206,4.206,0,0,0,1.234,3,4.267,4.267,0,0,0,3.017,1.247h6.8a12,12,0,0,0,8.47-3.464,11.819,11.819,0,0,0,3.511-8.4v-30.2a8.571,8.571,0,0,0-3.1-6.594L39.634,2.343a10.737,10.737,0,0,0-13.687.246L3.352,20.676A8.576,8.576,0,0,0,0,27.269V57.434A11.937,11.937,0,0,0,11.98,69.327h6.642a4.268,4.268,0,0,0,4.283-4.221Z" transform="translate(0 -14.005)" fill="#31535d"/>
    </g>
  </g>
</svg>
