<svg xmlns="http://www.w3.org/2000/svg" width="70.303" height="70.302" viewBox="0 0 70.303 70.302">
  <g id="Iconly_Bold_Category" data-name="Iconly/Bold/Category" transform="translate(-2 -2)">
    <g id="Category" transform="translate(2 2)">
      <path id="Path_1880" data-name="Path 1880" d="M20.81,40.318a8.937,8.937,0,0,1,8.928,9h0V61.3a8.956,8.956,0,0,1-8.928,9H8.928A8.979,8.979,0,0,1,0,61.3H0V49.32a8.959,8.959,0,0,1,8.928-9H20.81Zm40.565,0a8.959,8.959,0,0,1,8.928,9h0V61.3a8.979,8.979,0,0,1-8.928,9H49.493a8.956,8.956,0,0,1-8.928-9h0V49.32a8.937,8.937,0,0,1,8.928-9H61.375ZM20.81,0a8.957,8.957,0,0,1,8.928,9h0V20.985a8.934,8.934,0,0,1-8.928,9H8.928a8.956,8.956,0,0,1-8.928-9H0V9A8.98,8.98,0,0,1,8.928,0H20.81ZM61.375,0A8.98,8.98,0,0,1,70.3,9h0V20.985a8.956,8.956,0,0,1-8.928,9H49.493a8.934,8.934,0,0,1-8.928-9h0V9a8.957,8.957,0,0,1,8.928-9H61.375Z" transform="translate(0 0)" fill="#a2a2a2"/>
    </g>
  </g>
</svg>
