<svg xmlns="http://www.w3.org/2000/svg" width="58.928" height="69.327" viewBox="0 0 58.928 69.327">
  <g id="Iconly_Bold_Notification" data-name="Iconly/Bold/Notification" transform="translate(-3.5 -2)">
    <g id="Notification" transform="translate(3.5 2)">
      <path id="Path_1878" data-name="Path 1878" d="M33.5,59.223a12.035,12.035,0,0,1,4.962,1.233h.093a3.068,3.068,0,0,1,.5,4.252,10.684,10.684,0,0,1-8.032,4.53,12.774,12.774,0,0,1-9.3-2.557A5.632,5.632,0,0,1,19.3,62.643c0-1.726,1.613-2.527,3.1-2.866a25.861,25.861,0,0,1,5.3-.555h5.8ZM29.591,0c10.73,0,21.8,7.765,22.948,19.012.186,2.311,0,4.714.186,7.056A17.427,17.427,0,0,0,56.788,34.2a12.676,12.676,0,0,1,2.14,6.378h0v.709a12.677,12.677,0,0,1-3.1,8.381,15.542,15.542,0,0,1-9.769,4.838,130.727,130.727,0,0,1-33.275,0A15.544,15.544,0,0,1,2.89,49.671,12.491,12.491,0,0,1,.006,41.29v-.709A12.977,12.977,0,0,1,2.084,34.2a17.768,17.768,0,0,0,4.124-8.135c.186-2.342,0-4.714.186-7.056C7.573,7.765,18.427,0,29.281,0h.31Z" transform="translate(0 0)" fill="#a2a2a2"/>
    </g>
  </g>
</svg>
