<svg xmlns="http://www.w3.org/2000/svg" width="173" height="163.94" viewBox="0 0 173 163.94">
  <path id="image-upload" d="M175.028,79.691V132.8a29.944,29.944,0,0,1-33.193,33.193H35.619A29.944,29.944,0,0,1,2.427,132.8V44.285A29.944,29.944,0,0,1,35.619,11.093H106.43a6.639,6.639,0,1,1,0,13.277H35.619C21.661,24.37,15.7,30.327,15.7,44.285V126.16l22.482-22.482a8.922,8.922,0,0,1,12.569,0l8.32,8.32a4.426,4.426,0,0,0,6.2,0L109,68.273a8.922,8.922,0,0,1,12.569,0l40.185,40.185V79.691a6.639,6.639,0,0,1,13.277,0ZM53.26,50.924a11.091,11.091,0,1,0,.062,0Zm93.267-24.076,1.947-1.938V44.285a6.639,6.639,0,0,0,13.277,0V24.91l1.947,1.938a6.639,6.639,0,0,0,9.382-9.382L159.8,4.189a6.647,6.647,0,0,0-9.382,0L137.144,17.466a6.639,6.639,0,0,0,9.382,9.382Z" transform="translate(-2.227 -2.251)" fill="#15aca7"/>
</svg>
