<svg xmlns="http://www.w3.org/2000/svg" width="74.477" height="65.458" viewBox="0 0 74.477 65.458">
  <g id="shopping-cart" transform="translate(0 0)">
    <path id="Path_1873" data-name="Path 1873" d="M24.147,43.639H63.567a2.175,2.175,0,0,0,2.1-1.583l8.728-30.548a2.179,2.179,0,0,0-2.1-2.781H19.109L17.55,1.709A2.182,2.182,0,0,0,15.419,0H2.182a2.182,2.182,0,0,0,0,4.364H13.668L21.547,39.82a6.542,6.542,0,0,0,2.6,12.547H63.567a2.182,2.182,0,0,0,0-4.364H24.147a2.182,2.182,0,0,1,0-4.364Zm0,0" fill="#707070"/>
    <path id="Path_1874" data-name="Path 1874" d="M151,366.55A6.546,6.546,0,1,0,157.546,360,6.553,6.553,0,0,0,151,366.55Zm0,0" transform="translate(-129.035 -307.637)" fill="#707070"/>
    <path id="Path_1875" data-name="Path 1875" d="M362,366.55A6.546,6.546,0,1,0,368.55,360,6.553,6.553,0,0,0,362,366.55Zm0,0" transform="translate(-309.346 -307.637)" fill="#707070"/>
  </g>
</svg>
